<?xml version="1.0" standalone="no"?>
<!DOCTYPE svg PUBLIC "-//W3C//DTD SVG 20010904//EN"
 "http://www.w3.org/TR/2001/REC-SVG-20010904/DTD/svg10.dtd">
<svg version="1.0" xmlns="http://www.w3.org/2000/svg"
 width="300.000000pt" height="300.000000pt" viewBox="0 0 300.000000 300.000000"
 preserveAspectRatio="xMidYMid meet">
<metadata>
Created by potrace 1.10, written by Peter Selinger 2001-2011
</metadata>
<g transform="translate(0.000000,300.000000) scale(0.100000,-0.100000)"
fill="#000000" stroke="none">
<path d="M1340 2654 c-220 -47 -407 -186 -519 -385 -114 -203 -124 -474 -26
-716 62 -153 152 -285 369 -538 155 -181 235 -286 278 -365 50 -90 66 -90 116
0 43 79 123 184 278 365 351 410 444 606 431 914 -7 187 -54 314 -168 457
-174 219 -483 328 -759 268z m320 -19 c258 -60 463 -240 547 -480 34 -95 43
-145 45 -225 3 -117 -10 -210 -42 -304 -30 -91 -111 -252 -142 -286 -10 -10
-18 -22 -18 -25 0 -9 -134 -182 -178 -230 -21 -22 -62 -69 -92 -105 -30 -36
-58 -67 -61 -70 -16 -14 -163 -218 -179 -250 -29 -57 -46 -57 -78 -4 -46 78
-163 234 -262 348 -282 325 -387 497 -434 706 -41 184 -13 395 72 550 39 70
128 177 190 226 77 60 221 130 307 148 93 19 244 19 325 1z"/>
<path d="M1356 2425 c-239 -67 -400 -280 -399 -525 1 -162 48 -276 162 -391
153 -154 371 -199 582 -120 339 127 455 574 222 854 -69 83 -190 162 -278 183
-60 14 -239 13 -289 -1z m309 -27 c159 -53 281 -174 337 -335 32 -96 32 -251
-2 -338 -85 -220 -274 -355 -499 -355 -224 0 -414 132 -498 347 -37 94 -39
246 -5 344 96 280 390 429 667 337z"/>
<path d="M1440 2268 c-123 -19 -228 -99 -283 -216 -27 -59 -31 -77 -31 -152 1
-155 75 -275 212 -342 61 -30 74 -33 162 -33 88 0 101 3 162 33 83 41 158 120
189 200 34 86 32 207 -4 285 -36 78 -77 128 -136 166 -85 55 -172 74 -271 59z
m209 -45 c71 -34 145 -109 178 -182 22 -47 26 -70 26 -146 0 -101 -13 -139
-69 -214 -148 -193 -441 -186 -580 14 -65 94 -79 243 -31 347 81 180 302 263
476 181z"/>
<path d="M1242 714 c-120 -26 -192 -69 -217 -129 -39 -90 50 -172 241 -227 66
-18 105 -22 234 -23 169 0 224 9 328 56 89 40 122 66 144 115 17 39 17 47 5
76 -29 67 -102 108 -234 134 -72 14 -79 13 -90 -3 -20 -26 -17 -29 37 -41 63
-15 169 -66 192 -93 23 -27 14 -44 -38 -68 -80 -38 -211 -54 -394 -48 -198 6
-297 30 -341 83 -12 15 -10 20 20 45 35 28 140 72 204 84 35 7 36 7 20 31 -17
27 -23 27 -111 8z m27 -27 c-2 -2 -34 -18 -71 -35 -63 -30 -108 -70 -108 -96
0 -25 58 -65 125 -86 136 -42 469 -37 599 8 52 18 96 53 96 75 0 28 -42 67
-105 98 -36 17 -65 34 -65 36 0 3 19 2 41 -2 104 -18 179 -74 179 -135 0 -19
-7 -46 -16 -58 -26 -37 -117 -90 -184 -107 -8 -2 -28 -8 -45 -15 -55 -21 -280
-25 -385 -6 -235 44 -354 160 -257 253 17 18 46 37 62 44 59 23 155 42 134 26z"/>
</g>
</svg>
