<svg xmlns="http://www.w3.org/2000/svg" xmlns:xlink="http://www.w3.org/1999/xlink" width="40" zoomAndPan="magnify" viewBox="0 0 30 37.92" height="40" preserveAspectRatio="xMidYMid meet" version="1.0"><defs><clipPath id="49eb3f0bfc"><path d="M 3.464844 4.957031 L 26.566406 4.957031 L 26.566406 27.898438 L 3.464844 27.898438 Z M 3.464844 4.957031 " clip-rule="nonzero"/></clipPath><clipPath id="a2faf749dd"><path d="M 0.0625 2.039062 L 29.9375 2.039062 L 29.9375 15.492188 L 0.0625 15.492188 Z M 0.0625 2.039062 " clip-rule="nonzero"/></clipPath></defs><g clip-path="url(#49eb3f0bfc)"><path fill="#d4ab8a" d="M 25.554688 14.871094 L 15 6.054688 L 4.445312 14.871094 L 4.445312 26.964844 L 11.867188 26.964844 L 11.867188 20.648438 C 11.867188 20.390625 12.078125 20.179688 12.335938 20.179688 L 17.664062 20.179688 C 17.921875 20.179688 18.132812 20.390625 18.132812 20.648438 L 18.132812 26.964844 L 25.554688 26.964844 Z M 15.320312 5.109375 L 26.320312 14.296875 C 26.429688 14.386719 26.488281 14.519531 26.488281 14.652344 L 26.488281 27.429688 C 26.488281 27.6875 26.277344 27.898438 26.019531 27.898438 L 17.664062 27.898438 C 17.40625 27.898438 17.199219 27.6875 17.199219 27.429688 L 17.199219 21.117188 L 12.804688 21.117188 L 12.804688 27.429688 C 12.804688 27.6875 12.59375 27.898438 12.335938 27.898438 L 3.980469 27.898438 C 3.722656 27.898438 3.511719 27.6875 3.511719 27.429688 L 3.511719 14.652344 C 3.511719 14.5 3.585938 14.363281 3.703125 14.277344 L 14.703125 5.09375 L 14.699219 5.089844 C 14.882812 4.9375 15.152344 4.949219 15.320312 5.109375 " fill-opacity="1" fill-rule="nonzero"/></g><g clip-path="url(#a2faf749dd)"><path fill="#d4ab8a" d="M 29.167969 15.332031 C 29.363281 15.5 29.65625 15.480469 29.824219 15.285156 C 29.992188 15.089844 29.972656 14.796875 29.777344 14.628906 C 28.226562 13.292969 15.628906 2.058594 15.015625 2.039062 L 14.984375 2.039062 C 14.234375 2.0625 1.824219 13.246094 0.222656 14.628906 C 0.0273438 14.796875 0.0078125 15.089844 0.175781 15.285156 C 0.34375 15.480469 0.636719 15.5 0.832031 15.332031 L 15 3.121094 L 29.167969 15.332031 " fill-opacity="1" fill-rule="nonzero"/></g><path fill="#d4ab8a" d="M 4.769531 4.730469 L 8.082031 4.730469 L 8.082031 9.082031 L 7.921875 9.222656 L 5.09375 11.65625 L 4.328125 12.316406 L 4.328125 11.304688 L 4.304688 5.199219 L 4.304688 4.730469 Z M 7.148438 5.664062 L 5.238281 5.664062 L 5.253906 10.292969 L 7.148438 8.65625 L 7.148438 5.664062 " fill-opacity="1" fill-rule="nonzero"/><path fill="#8b8b85" d="M 15 6.054688 L 4.445312 14.871094 L 4.445312 26.964844 L 11.867188 26.964844 L 11.867188 20.648438 C 11.867188 20.390625 12.078125 20.179688 12.335938 20.179688 L 17.664062 20.179688 C 17.921875 20.179688 18.132812 20.390625 18.132812 20.648438 L 18.132812 26.964844 L 25.554688 26.964844 L 25.554688 14.871094 L 15 6.054688 " fill-opacity="1" fill-rule="evenodd"/><path fill="#8b8b85" d="M 7.148438 8.503906 L 7.148438 5.664062 L 5.238281 5.664062 L 5.253906 10.175781 C 5.867188 9.628906 6.507812 9.066406 7.148438 8.503906 " fill-opacity="1" fill-rule="evenodd"/><path fill="#f1e2da" d="M 7.148438 8.503906 L 7.148438 5.664062 L 6.324219 5.664062 L 6.324219 9.230469 C 6.597656 8.988281 6.871094 8.746094 7.148438 8.503906 " fill-opacity="1" fill-rule="evenodd"/><path fill="#f1e2da" d="M 14.230469 6.699219 L 24.375 15.171875 C 24.484375 15.261719 24.542969 15.394531 24.542969 15.527344 L 24.542969 26.964844 L 25.554688 26.964844 L 25.554688 14.871094 L 15 6.054688 Z M 14.230469 6.699219 " fill-opacity="1" fill-rule="evenodd"/></svg>