<svg xmlns="http://www.w3.org/2000/svg" xmlns:xlink="http://www.w3.org/1999/xlink" width="40" zoomAndPan="magnify" viewBox="0 0 30 37.92" height="40" preserveAspectRatio="xMidYMid meet" version="1.0"><defs><clipPath id="0d208e79e9"><path d="M 0.03125 0 L 29.96875 0 L 29.96875 29 L 0.03125 29 Z M 0.03125 0 " clip-rule="nonzero"/></clipPath><clipPath id="02ff327f91"><path d="M -2.785156 3.417969 L 25.828125 -2.335938 L 31.582031 26.28125 L 2.964844 32.03125 Z M -2.785156 3.417969 " clip-rule="nonzero"/></clipPath><clipPath id="185317e07c"><path d="M -2.785156 3.417969 L 25.828125 -2.335938 L 31.582031 26.28125 L 2.964844 32.03125 Z M -2.785156 3.417969 " clip-rule="nonzero"/></clipPath></defs><g clip-path="url(#0d208e79e9)"><g clip-path="url(#02ff327f91)"><g clip-path="url(#185317e07c)"><path fill="#ffffff" d="M 17.742188 8.3125 C 17.242188 8.410156 16.761719 8.554688 16.296875 8.722656 C 14.570312 7.550781 12.542969 6.929688 10.476562 6.945312 L 12.65625 3.675781 C 12.808594 3.449219 12.746094 3.140625 12.519531 2.992188 L 9.625 1.066406 C 9.515625 1 9.386719 0.96875 9.257812 0.996094 L 5.402344 1.769531 C 5.273438 1.796875 5.164062 1.875 5.089844 1.980469 L 3.164062 4.871094 C 3.015625 5.097656 3.078125 5.40625 3.300781 5.554688 L 6.570312 7.726562 C 2.039062 9.59375 -0.582031 14.390625 0.40625 19.292969 C 1.527344 24.871094 6.976562 28.496094 12.554688 27.375 C 13.054688 27.277344 13.539062 27.132812 13.996094 26.964844 C 16.269531 28.507812 19.105469 29.085938 21.8125 28.542969 C 27.390625 27.421875 31.015625 21.972656 29.894531 16.394531 C 28.773438 10.816406 23.320312 7.191406 17.742188 8.3125 Z M 15.933594 12.277344 C 15.992188 12.335938 16.042969 12.402344 16.097656 12.460938 C 16.164062 12.539062 16.226562 12.609375 16.289062 12.6875 C 16.339844 12.753906 16.390625 12.820312 16.441406 12.882812 C 16.5 12.960938 16.554688 13.039062 16.609375 13.125 C 16.660156 13.191406 16.703125 13.261719 16.746094 13.328125 C 16.800781 13.414062 16.851562 13.496094 16.898438 13.582031 C 16.941406 13.652344 16.980469 13.722656 17.019531 13.792969 C 17.0625 13.878906 17.113281 13.972656 17.15625 14.0625 C 17.191406 14.136719 17.222656 14.203125 17.253906 14.277344 C 17.296875 14.375 17.339844 14.472656 17.378906 14.574219 C 17.402344 14.640625 17.429688 14.707031 17.460938 14.777344 C 17.496094 14.890625 17.535156 15.003906 17.570312 15.121094 C 17.585938 15.179688 17.605469 15.234375 17.625 15.296875 C 17.667969 15.472656 17.714844 15.648438 17.75 15.828125 C 17.789062 16.019531 17.820312 16.214844 17.84375 16.40625 C 17.851562 16.472656 17.855469 16.539062 17.863281 16.601562 C 17.871094 16.730469 17.882812 16.859375 17.890625 16.988281 C 17.894531 17.0625 17.890625 17.136719 17.890625 17.21875 C 17.894531 17.332031 17.894531 17.445312 17.894531 17.558594 C 17.890625 17.640625 17.882812 17.722656 17.878906 17.800781 C 17.871094 17.914062 17.859375 18.019531 17.847656 18.128906 C 17.839844 18.210938 17.824219 18.292969 17.8125 18.375 C 17.796875 18.480469 17.785156 18.582031 17.765625 18.6875 C 17.746094 18.769531 17.726562 18.847656 17.707031 18.933594 C 17.683594 19.035156 17.664062 19.136719 17.632812 19.234375 C 17.617188 19.316406 17.585938 19.398438 17.5625 19.480469 C 17.53125 19.574219 17.503906 19.675781 17.464844 19.769531 C 17.4375 19.851562 17.40625 19.925781 17.375 20.007812 C 17.335938 20.101562 17.300781 20.199219 17.253906 20.292969 C 17.226562 20.367188 17.183594 20.441406 17.152344 20.519531 C 17.105469 20.613281 17.058594 20.703125 17.011719 20.792969 C 16.96875 20.867188 16.925781 20.941406 16.882812 21.011719 C 16.832031 21.097656 16.777344 21.191406 16.722656 21.277344 C 16.675781 21.347656 16.628906 21.414062 16.582031 21.484375 C 16.519531 21.574219 16.460938 21.65625 16.398438 21.738281 L 16.242188 21.933594 C 16.179688 22.015625 16.109375 22.097656 16.039062 22.171875 C 15.980469 22.238281 15.925781 22.300781 15.867188 22.359375 C 15.796875 22.433594 15.722656 22.511719 15.644531 22.582031 C 15.582031 22.644531 15.519531 22.699219 15.457031 22.757812 C 15.378906 22.824219 15.296875 22.894531 15.222656 22.960938 C 15.152344 23.015625 15.082031 23.070312 15.011719 23.125 C 14.929688 23.183594 14.847656 23.246094 14.757812 23.308594 C 14.683594 23.359375 14.609375 23.410156 14.535156 23.460938 C 14.503906 23.480469 14.472656 23.5 14.441406 23.519531 C 14.414062 23.496094 14.390625 23.472656 14.367188 23.449219 C 14.316406 23.390625 14.261719 23.328125 14.210938 23.269531 C 14.144531 23.191406 14.078125 23.117188 14.011719 23.035156 C 13.964844 22.972656 13.917969 22.90625 13.871094 22.847656 C 13.808594 22.765625 13.75 22.679688 13.695312 22.597656 C 13.648438 22.535156 13.601562 22.46875 13.558594 22.402344 C 13.507812 22.3125 13.453125 22.230469 13.402344 22.140625 C 13.363281 22.070312 13.324219 22.003906 13.289062 21.9375 C 13.242188 21.847656 13.191406 21.75 13.148438 21.660156 C 13.117188 21.589844 13.082031 21.523438 13.054688 21.453125 C 13.007812 21.351562 12.96875 21.25 12.925781 21.152344 C 12.902344 21.082031 12.875 21.015625 12.847656 20.949219 C 12.808594 20.835938 12.769531 20.722656 12.738281 20.605469 C 12.722656 20.546875 12.699219 20.492188 12.683594 20.433594 C 12.636719 20.257812 12.589844 20.078125 12.554688 19.898438 C 12.515625 19.707031 12.488281 19.511719 12.464844 19.320312 C 12.457031 19.253906 12.453125 19.1875 12.445312 19.125 C 12.433594 18.996094 12.421875 18.867188 12.417969 18.742188 C 12.414062 18.664062 12.417969 18.589844 12.417969 18.511719 C 12.414062 18.398438 12.410156 18.285156 12.414062 18.167969 C 12.417969 18.085938 12.425781 18.003906 12.429688 17.929688 C 12.4375 17.816406 12.445312 17.710938 12.460938 17.601562 C 12.46875 17.519531 12.480469 17.4375 12.496094 17.355469 C 12.507812 17.253906 12.523438 17.144531 12.542969 17.039062 C 12.5625 16.960938 12.582031 16.882812 12.597656 16.796875 C 12.625 16.699219 12.644531 16.59375 12.671875 16.492188 C 12.691406 16.414062 12.71875 16.332031 12.746094 16.253906 C 12.773438 16.15625 12.804688 16.054688 12.839844 15.957031 C 12.871094 15.882812 12.898438 15.800781 12.929688 15.722656 C 12.96875 15.628906 13.007812 15.535156 13.050781 15.4375 C 13.082031 15.363281 13.121094 15.285156 13.15625 15.210938 C 13.203125 15.117188 13.25 15.027344 13.296875 14.933594 C 13.335938 14.859375 13.382812 14.792969 13.421875 14.71875 C 13.476562 14.628906 13.527344 14.542969 13.585938 14.453125 C 13.632812 14.378906 13.679688 14.316406 13.722656 14.246094 C 13.78125 14.160156 13.84375 14.078125 13.910156 13.992188 C 13.960938 13.921875 14.011719 13.859375 14.066406 13.796875 C 14.128906 13.714844 14.199219 13.636719 14.265625 13.554688 C 14.324219 13.492188 14.382812 13.433594 14.441406 13.371094 C 14.511719 13.296875 14.585938 13.222656 14.660156 13.144531 C 14.722656 13.089844 14.789062 13.03125 14.851562 12.972656 C 14.925781 12.902344 15.007812 12.835938 15.085938 12.769531 C 15.15625 12.710938 15.222656 12.65625 15.292969 12.601562 C 15.375 12.539062 15.460938 12.480469 15.546875 12.421875 C 15.621094 12.367188 15.691406 12.316406 15.773438 12.265625 C 15.804688 12.246094 15.835938 12.226562 15.871094 12.207031 C 15.890625 12.230469 15.914062 12.253906 15.933594 12.277344 Z M 9.804688 21.074219 C 9.824219 21.140625 9.847656 21.207031 9.863281 21.273438 C 9.902344 21.410156 9.945312 21.546875 9.984375 21.679688 C 10.011719 21.753906 10.042969 21.828125 10.066406 21.902344 C 10.113281 22.027344 10.15625 22.148438 10.207031 22.277344 C 10.238281 22.351562 10.265625 22.425781 10.300781 22.496094 C 10.351562 22.621094 10.410156 22.746094 10.464844 22.871094 C 10.5 22.933594 10.53125 23 10.566406 23.070312 C 10.636719 23.210938 10.714844 23.355469 10.792969 23.496094 C 10.816406 23.535156 10.839844 23.578125 10.863281 23.621094 C 10.96875 23.800781 11.078125 23.972656 11.195312 24.148438 C 11.222656 24.195312 11.257812 24.246094 11.292969 24.292969 C 11.363281 24.386719 11.425781 24.484375 11.496094 24.578125 C 11.453125 24.582031 11.410156 24.589844 11.363281 24.597656 C 11.246094 24.613281 11.132812 24.621094 11.015625 24.628906 C 10.890625 24.632812 10.761719 24.644531 10.636719 24.644531 C 10.523438 24.648438 10.40625 24.644531 10.296875 24.636719 C 10.171875 24.636719 10.042969 24.628906 9.921875 24.617188 C 9.808594 24.609375 9.695312 24.597656 9.582031 24.585938 C 9.464844 24.566406 9.339844 24.550781 9.222656 24.527344 C 9.109375 24.503906 9 24.484375 8.890625 24.460938 C 8.769531 24.433594 8.652344 24.402344 8.539062 24.371094 C 8.425781 24.335938 8.320312 24.308594 8.214844 24.269531 C 8.097656 24.234375 7.984375 24.191406 7.875 24.148438 C 7.769531 24.109375 7.667969 24.0625 7.566406 24.019531 C 7.457031 23.972656 7.34375 23.917969 7.238281 23.863281 C 7.136719 23.816406 7.042969 23.765625 6.941406 23.714844 C 6.839844 23.652344 6.738281 23.589844 6.632812 23.523438 C 6.539062 23.46875 6.445312 23.40625 6.355469 23.34375 C 6.253906 23.277344 6.160156 23.203125 6.058594 23.128906 C 5.972656 23.0625 5.886719 23 5.800781 22.929688 C 5.707031 22.851562 5.621094 22.765625 5.527344 22.679688 C 5.445312 22.605469 5.367188 22.535156 5.292969 22.457031 C 5.203125 22.371094 5.121094 22.277344 5.035156 22.183594 C 4.964844 22.101562 4.890625 22.027344 4.824219 21.945312 C 4.742188 21.839844 4.667969 21.742188 4.589844 21.636719 C 4.527344 21.546875 4.460938 21.464844 4.402344 21.382812 C 4.332031 21.273438 4.261719 21.15625 4.195312 21.039062 C 4.140625 20.949219 4.085938 20.867188 4.035156 20.773438 C 3.972656 20.652344 3.914062 20.519531 3.851562 20.390625 C 3.8125 20.304688 3.769531 20.222656 3.730469 20.128906 C 3.667969 19.980469 3.617188 19.832031 3.566406 19.675781 C 3.539062 19.601562 3.503906 19.527344 3.484375 19.449219 C 3.410156 19.214844 3.347656 18.976562 3.300781 18.734375 C 2.5 14.75 5.089844 10.855469 9.074219 10.054688 C 9.265625 10.015625 9.460938 9.988281 9.65625 9.960938 C 9.71875 9.953125 9.785156 9.953125 9.84375 9.945312 C 9.976562 9.933594 10.113281 9.925781 10.25 9.917969 C 10.316406 9.914062 10.394531 9.914062 10.464844 9.914062 C 10.589844 9.914062 10.714844 9.914062 10.839844 9.917969 C 10.914062 9.925781 10.984375 9.925781 11.058594 9.929688 C 11.191406 9.945312 11.320312 9.957031 11.445312 9.972656 C 11.511719 9.980469 11.578125 9.988281 11.648438 9.996094 C 11.800781 10.023438 11.957031 10.050781 12.117188 10.085938 C 12.148438 10.09375 12.183594 10.101562 12.222656 10.109375 C 12.410156 10.148438 12.601562 10.207031 12.789062 10.265625 C 12.835938 10.28125 12.882812 10.300781 12.929688 10.316406 C 13.039062 10.355469 13.144531 10.394531 13.25 10.433594 C 13.105469 10.550781 12.972656 10.675781 12.835938 10.796875 C 12.796875 10.828125 12.761719 10.859375 12.726562 10.894531 C 12.546875 11.058594 12.378906 11.234375 12.210938 11.40625 C 12.164062 11.464844 12.113281 11.523438 12.070312 11.570312 C 11.953125 11.699219 11.839844 11.828125 11.734375 11.960938 C 11.675781 12.035156 11.621094 12.113281 11.5625 12.191406 C 11.472656 12.304688 11.386719 12.421875 11.300781 12.539062 C 11.242188 12.625 11.191406 12.710938 11.132812 12.796875 C 11.0625 12.914062 10.984375 13.027344 10.914062 13.148438 C 10.859375 13.238281 10.808594 13.328125 10.757812 13.425781 C 10.691406 13.542969 10.628906 13.65625 10.566406 13.773438 C 10.515625 13.875 10.472656 13.972656 10.425781 14.066406 C 10.375 14.1875 10.316406 14.304688 10.269531 14.429688 C 10.222656 14.527344 10.183594 14.632812 10.148438 14.730469 C 10.097656 14.855469 10.050781 14.972656 10.011719 15.101562 C 9.976562 15.203125 9.941406 15.308594 9.914062 15.414062 C 9.875 15.535156 9.839844 15.664062 9.804688 15.789062 C 9.777344 15.898438 9.753906 16.003906 9.722656 16.109375 C 9.695312 16.234375 9.667969 16.363281 9.644531 16.496094 C 9.621094 16.605469 9.601562 16.707031 9.589844 16.8125 C 9.566406 16.945312 9.546875 17.082031 9.535156 17.214844 C 9.519531 17.320312 9.507812 17.425781 9.5 17.53125 C 9.484375 17.667969 9.480469 17.8125 9.472656 17.949219 C 9.46875 18.054688 9.464844 18.15625 9.460938 18.261719 C 9.457031 18.40625 9.460938 18.550781 9.46875 18.699219 C 9.472656 18.792969 9.472656 18.890625 9.476562 18.988281 C 9.484375 19.152344 9.5 19.316406 9.519531 19.480469 C 9.527344 19.5625 9.53125 19.644531 9.542969 19.722656 C 9.574219 19.972656 9.613281 20.214844 9.660156 20.460938 C 9.703125 20.667969 9.753906 20.871094 9.804688 21.074219 Z M 9.253906 2 L 10.988281 3.152344 L 9.605469 3.433594 L 8.832031 2.082031 Z M 9.800781 4.394531 L 11.183594 4.117188 L 9.527344 6.605469 Z M 7.230469 2.40625 L 7.816406 2.289062 L 8.589844 3.636719 L 7.039062 3.949219 Z M 8.78125 4.597656 L 8.476562 7.085938 L 7.230469 4.910156 Z M 5.792969 2.695312 L 6.214844 2.609375 L 6.023438 4.152344 L 4.640625 4.429688 Z M 4.832031 5.394531 L 6.214844 5.117188 L 7.320312 7.046875 Z M 14.378906 25.761719 C 14.21875 25.835938 14.058594 25.902344 13.894531 25.960938 C 13.890625 25.960938 13.890625 25.964844 13.886719 25.964844 C 13.40625 26.152344 12.890625 26.304688 12.363281 26.414062 C 7.3125 27.429688 2.382812 24.148438 1.367188 19.101562 C 0.433594 14.441406 3.101562 9.886719 7.589844 8.402344 L 8.507812 9.019531 C 8.519531 9.023438 8.53125 9.027344 8.535156 9.03125 C 8.574219 9.050781 8.613281 9.070312 8.65625 9.082031 C 8.671875 9.082031 8.6875 9.089844 8.703125 9.089844 C 8.761719 9.101562 8.820312 9.101562 8.878906 9.089844 C 8.9375 9.078125 8.992188 9.054688 9.039062 9.023438 C 9.054688 9.015625 9.066406 9.003906 9.082031 8.996094 C 9.113281 8.96875 9.144531 8.9375 9.171875 8.902344 C 9.175781 8.894531 9.183594 8.890625 9.191406 8.882812 L 9.804688 7.960938 C 11.683594 7.808594 13.5625 8.234375 15.195312 9.179688 C 15.152344 9.203125 15.109375 9.226562 15.070312 9.25 C 14.984375 9.292969 14.902344 9.332031 14.816406 9.378906 C 14.726562 9.429688 14.636719 9.480469 14.550781 9.535156 C 14.464844 9.582031 14.386719 9.632812 14.304688 9.679688 C 14.261719 9.707031 14.214844 9.730469 14.171875 9.761719 C 14.105469 9.730469 14.035156 9.703125 13.960938 9.671875 C 13.863281 9.628906 13.769531 9.585938 13.671875 9.546875 C 13.550781 9.5 13.433594 9.453125 13.3125 9.414062 C 13.214844 9.375 13.113281 9.34375 13.011719 9.308594 C 12.894531 9.269531 12.773438 9.238281 12.652344 9.203125 C 12.546875 9.179688 12.445312 9.152344 12.339844 9.132812 C 12.21875 9.101562 12.089844 9.082031 11.964844 9.058594 C 11.863281 9.042969 11.761719 9.023438 11.660156 9.007812 C 11.53125 8.988281 11.398438 8.980469 11.269531 8.964844 C 11.167969 8.957031 11.066406 8.945312 10.964844 8.941406 C 10.828125 8.933594 10.691406 8.9375 10.554688 8.933594 C 10.460938 8.933594 10.363281 8.925781 10.269531 8.929688 C 10.117188 8.9375 9.964844 8.953125 9.8125 8.964844 C 9.730469 8.96875 9.652344 8.976562 9.574219 8.980469 C 9.339844 9.007812 9.109375 9.042969 8.878906 9.089844 C 4.367188 10 1.429688 14.414062 2.335938 18.925781 C 3.242188 23.441406 7.65625 26.375 12.171875 25.46875 C 12.296875 25.445312 12.421875 25.417969 12.515625 25.390625 L 12.539062 25.382812 C 12.742188 25.335938 12.9375 25.273438 13.132812 25.210938 C 13.570312 25.066406 13.992188 24.894531 14.382812 24.683594 C 14.457031 24.644531 14.53125 24.609375 14.601562 24.570312 C 16.191406 23.683594 17.398438 22.34375 18.121094 20.773438 C 18.84375 19.210938 19.074219 17.421875 18.714844 15.632812 C 18.675781 15.4375 18.625 15.242188 18.570312 15.046875 C 18.554688 14.980469 18.535156 14.917969 18.511719 14.855469 C 18.476562 14.722656 18.4375 14.597656 18.390625 14.472656 C 18.367188 14.394531 18.335938 14.328125 18.308594 14.257812 C 18.265625 14.140625 18.214844 14.023438 18.167969 13.910156 C 18.132812 13.835938 18.105469 13.765625 18.070312 13.695312 C 18.015625 13.582031 17.960938 13.476562 17.902344 13.359375 C 17.867188 13.292969 17.828125 13.226562 17.789062 13.15625 C 17.726562 13.046875 17.660156 12.9375 17.589844 12.828125 C 17.550781 12.769531 17.519531 12.707031 17.476562 12.648438 C 17.390625 12.523438 17.300781 12.394531 17.207031 12.269531 C 17.179688 12.234375 17.15625 12.199219 17.128906 12.164062 C 17.015625 12.015625 16.894531 11.863281 16.765625 11.726562 C 16.820312 11.699219 16.882812 11.675781 16.9375 11.652344 C 17.011719 11.621094 17.089844 11.589844 17.164062 11.558594 C 17.253906 11.527344 17.339844 11.496094 17.429688 11.464844 C 17.5 11.441406 17.574219 11.417969 17.65625 11.394531 C 17.683594 11.386719 17.71875 11.378906 17.75 11.367188 C 17.785156 11.410156 17.824219 11.453125 17.855469 11.492188 C 17.910156 11.558594 17.964844 11.628906 18.015625 11.699219 C 18.082031 11.785156 18.140625 11.875 18.203125 11.960938 C 18.25 12.03125 18.300781 12.109375 18.351562 12.179688 C 18.410156 12.273438 18.460938 12.363281 18.519531 12.453125 C 18.566406 12.53125 18.609375 12.601562 18.652344 12.683594 C 18.707031 12.773438 18.753906 12.867188 18.804688 12.964844 C 18.847656 13.046875 18.886719 13.125 18.925781 13.199219 C 18.972656 13.300781 19.019531 13.402344 19.0625 13.5 C 19.097656 13.578125 19.132812 13.65625 19.164062 13.734375 C 19.207031 13.839844 19.246094 13.949219 19.285156 14.058594 C 19.316406 14.132812 19.34375 14.207031 19.371094 14.285156 C 19.410156 14.40625 19.445312 14.53125 19.480469 14.652344 C 19.503906 14.71875 19.519531 14.78125 19.539062 14.847656 C 19.589844 15.035156 19.636719 15.226562 19.675781 15.421875 C 19.8125 16.109375 19.871094 16.804688 19.851562 17.484375 C 19.816406 19.3125 19.234375 21.070312 18.210938 22.554688 C 17.570312 23.484375 16.757812 24.304688 15.789062 24.972656 C 15.339844 25.277344 14.871094 25.542969 14.378906 25.761719 Z M 21.234375 25.671875 C 21.035156 25.710938 20.839844 25.742188 20.644531 25.765625 C 20.582031 25.773438 20.519531 25.777344 20.453125 25.777344 C 20.320312 25.796875 20.1875 25.800781 20.054688 25.808594 C 19.976562 25.808594 19.902344 25.808594 19.828125 25.8125 C 19.703125 25.8125 19.578125 25.808594 19.457031 25.804688 C 19.378906 25.800781 19.304688 25.800781 19.226562 25.792969 C 19.101562 25.785156 18.972656 25.769531 18.847656 25.75 C 18.777344 25.746094 18.710938 25.734375 18.636719 25.726562 C 18.488281 25.703125 18.34375 25.671875 18.195312 25.640625 C 18.148438 25.628906 18.105469 25.625 18.058594 25.613281 C 17.871094 25.566406 17.679688 25.515625 17.496094 25.449219 C 17.441406 25.4375 17.394531 25.417969 17.34375 25.394531 C 17.238281 25.363281 17.128906 25.320312 17.023438 25.273438 C 17.167969 25.160156 17.300781 25.039062 17.4375 24.917969 C 17.476562 24.882812 17.515625 24.851562 17.554688 24.816406 C 17.730469 24.652344 17.902344 24.476562 18.070312 24.296875 C 18.125 24.242188 18.171875 24.183594 18.222656 24.128906 C 18.332031 24 18.441406 23.878906 18.546875 23.746094 C 18.605469 23.675781 18.660156 23.597656 18.722656 23.519531 C 18.808594 23.402344 18.898438 23.289062 18.980469 23.167969 C 19.039062 23.085938 19.097656 23 19.152344 22.914062 C 19.226562 22.796875 19.304688 22.683594 19.375 22.5625 C 19.425781 22.472656 19.476562 22.375 19.53125 22.285156 C 19.597656 22.167969 19.664062 22.046875 19.726562 21.929688 C 19.769531 21.832031 19.816406 21.738281 19.859375 21.636719 C 19.917969 21.519531 19.972656 21.398438 20.023438 21.273438 C 20.070312 21.175781 20.109375 21.078125 20.144531 20.972656 C 20.195312 20.847656 20.238281 20.726562 20.285156 20.601562 C 20.320312 20.5 20.347656 20.398438 20.382812 20.292969 C 20.421875 20.167969 20.457031 20.039062 20.492188 19.90625 C 20.519531 19.804688 20.542969 19.699219 20.570312 19.597656 C 20.601562 19.464844 20.625 19.332031 20.65625 19.203125 C 20.675781 19.097656 20.691406 18.988281 20.710938 18.886719 C 20.730469 18.75 20.746094 18.617188 20.765625 18.480469 C 20.773438 18.375 20.789062 18.269531 20.796875 18.167969 C 20.808594 18.023438 20.816406 17.886719 20.824219 17.746094 C 20.828125 17.644531 20.835938 17.542969 20.835938 17.4375 C 20.839844 17.289062 20.835938 17.140625 20.832031 16.996094 C 20.828125 16.898438 20.828125 16.800781 20.824219 16.703125 C 20.816406 16.539062 20.796875 16.378906 20.78125 16.214844 C 20.773438 16.132812 20.765625 16.046875 20.753906 15.964844 C 20.726562 15.71875 20.6875 15.472656 20.636719 15.226562 C 20.59375 15.019531 20.546875 14.820312 20.496094 14.617188 C 20.476562 14.550781 20.460938 14.492188 20.4375 14.425781 C 20.398438 14.289062 20.359375 14.148438 20.3125 14.019531 C 20.289062 13.945312 20.265625 13.867188 20.238281 13.796875 C 20.195312 13.671875 20.144531 13.550781 20.101562 13.425781 C 20.070312 13.351562 20.039062 13.277344 20.007812 13.207031 C 19.957031 13.082031 19.894531 12.960938 19.84375 12.839844 C 19.808594 12.773438 19.777344 12.703125 19.746094 12.640625 C 19.671875 12.5 19.597656 12.359375 19.523438 12.222656 C 19.5 12.179688 19.472656 12.132812 19.449219 12.09375 C 19.351562 11.917969 19.242188 11.742188 19.128906 11.570312 C 19.09375 11.519531 19.054688 11.464844 19.019531 11.414062 C 18.957031 11.324219 18.898438 11.230469 18.828125 11.144531 C 18.867188 11.140625 18.914062 11.132812 18.949219 11.125 C 19.070312 11.117188 19.183594 11.109375 19.300781 11.101562 C 19.425781 11.089844 19.554688 11.085938 19.679688 11.078125 C 19.792969 11.082031 19.90625 11.085938 20.019531 11.085938 C 20.148438 11.089844 20.269531 11.097656 20.390625 11.105469 C 20.507812 11.113281 20.617188 11.132812 20.730469 11.144531 C 20.851562 11.160156 20.972656 11.179688 21.089844 11.203125 C 21.203125 11.21875 21.316406 11.242188 21.425781 11.269531 C 21.542969 11.296875 21.664062 11.328125 21.773438 11.359375 C 21.886719 11.386719 21.992188 11.421875 22.097656 11.453125 C 22.214844 11.496094 22.324219 11.535156 22.4375 11.582031 C 22.542969 11.621094 22.640625 11.660156 22.746094 11.707031 C 22.855469 11.757812 22.96875 11.808594 23.074219 11.859375 C 23.171875 11.910156 23.269531 11.960938 23.371094 12.015625 C 23.472656 12.074219 23.574219 12.140625 23.675781 12.199219 C 23.769531 12.261719 23.867188 12.316406 23.957031 12.386719 C 24.054688 12.449219 24.152344 12.527344 24.25 12.597656 C 24.335938 12.664062 24.425781 12.730469 24.507812 12.800781 C 24.601562 12.882812 24.691406 12.964844 24.78125 13.046875 C 24.859375 13.121094 24.945312 13.195312 25.019531 13.269531 C 25.109375 13.355469 25.1875 13.449219 25.269531 13.542969 C 25.34375 13.625 25.417969 13.703125 25.484375 13.785156 C 25.566406 13.886719 25.640625 13.992188 25.714844 14.089844 C 25.777344 14.179688 25.84375 14.261719 25.902344 14.347656 C 25.976562 14.460938 26.042969 14.570312 26.113281 14.6875 C 26.164062 14.777344 26.222656 14.859375 26.269531 14.953125 C 26.335938 15.078125 26.390625 15.207031 26.453125 15.335938 C 26.496094 15.421875 26.539062 15.507812 26.574219 15.597656 C 26.640625 15.746094 26.691406 15.894531 26.742188 16.050781 C 26.765625 16.125 26.800781 16.199219 26.824219 16.277344 C 26.894531 16.511719 26.957031 16.746094 27.007812 16.992188 C 27.808594 20.976562 25.21875 24.871094 21.234375 25.671875 Z M 21.234375 25.671875 " fill-opacity="1" fill-rule="nonzero"/></g></g></g></svg>