<svg xmlns="http://www.w3.org/2000/svg" xmlns:xlink="http://www.w3.org/1999/xlink" width="40" zoomAndPan="magnify" viewBox="0 0 30 37.92" height="40" preserveAspectRatio="xMidYMid meet" version="1.0"><defs><clipPath id="e1105110e4"><path d="M 0.03125 1 L 29.96875 1 L 29.96875 29.1875 L 0.03125 29.1875 Z M 0.03125 1 " clip-rule="nonzero"/></clipPath></defs><g clip-path="url(#e1105110e4)"><path fill="#ffffff" d="M 27.214844 4.144531 L 24.710938 4.144531 L 24.710938 3.761719 C 24.710938 3.398438 24.640625 3.046875 24.5 2.707031 C 24.359375 2.371094 24.160156 2.074219 23.902344 1.816406 C 23.644531 1.554688 23.347656 1.355469 23.007812 1.21875 C 22.671875 1.078125 22.320312 1.007812 21.957031 1.007812 C 21.589844 1.007812 21.238281 1.078125 20.902344 1.21875 C 20.5625 1.355469 20.265625 1.554688 20.007812 1.816406 C 19.75 2.074219 19.550781 2.371094 19.410156 2.707031 C 19.269531 3.046875 19.199219 3.398438 19.199219 3.761719 L 19.199219 4.144531 L 10.800781 4.144531 L 10.800781 3.761719 C 10.800781 3.398438 10.730469 3.046875 10.589844 2.707031 C 10.449219 2.371094 10.25 2.070312 9.992188 1.8125 C 9.734375 1.554688 9.4375 1.355469 9.097656 1.214844 C 8.761719 1.078125 8.410156 1.007812 8.042969 1.007812 C 7.679688 1.007812 7.328125 1.078125 6.992188 1.214844 C 6.652344 1.355469 6.355469 1.554688 6.097656 1.8125 C 5.839844 2.070312 5.640625 2.371094 5.5 2.707031 C 5.359375 3.046875 5.289062 3.398438 5.289062 3.761719 L 5.289062 4.144531 L 2.785156 4.144531 C 2.421875 4.148438 2.070312 4.214844 1.730469 4.355469 C 1.394531 4.496094 1.097656 4.695312 0.839844 4.953125 C 0.582031 5.210938 0.382812 5.507812 0.242188 5.847656 C 0.101562 6.183594 0.03125 6.535156 0.03125 6.902344 L 0.03125 26.324219 C 0.03125 26.691406 0.101562 27.042969 0.242188 27.378906 C 0.382812 27.714844 0.582031 28.015625 0.839844 28.273438 C 1.097656 28.53125 1.394531 28.730469 1.730469 28.871094 C 2.070312 29.011719 2.421875 29.082031 2.785156 29.082031 L 27.214844 29.082031 C 27.578125 29.082031 27.929688 29.011719 28.269531 28.871094 C 28.605469 28.730469 28.902344 28.53125 29.160156 28.273438 C 29.417969 28.015625 29.617188 27.714844 29.757812 27.378906 C 29.898438 27.042969 29.96875 26.691406 29.96875 26.324219 L 29.96875 6.902344 C 29.96875 6.535156 29.898438 6.183594 29.757812 5.847656 C 29.617188 5.511719 29.417969 5.210938 29.160156 4.953125 C 28.902344 4.695312 28.605469 4.496094 28.265625 4.355469 C 27.929688 4.21875 27.578125 4.148438 27.214844 4.144531 Z M 20.199219 4.644531 L 20.199219 3.761719 C 20.199219 3.527344 20.242188 3.304688 20.332031 3.089844 C 20.421875 2.875 20.546875 2.683594 20.714844 2.519531 C 20.878906 2.355469 21.066406 2.230469 21.285156 2.140625 C 21.5 2.050781 21.722656 2.003906 21.957031 2.003906 C 22.1875 2.003906 22.414062 2.050781 22.628906 2.140625 C 22.84375 2.230469 23.03125 2.355469 23.195312 2.519531 C 23.363281 2.683594 23.488281 2.875 23.578125 3.089844 C 23.667969 3.304688 23.710938 3.527344 23.710938 3.761719 L 23.710938 5.535156 C 23.710938 5.765625 23.667969 5.992188 23.578125 6.207031 C 23.488281 6.421875 23.363281 6.609375 23.195312 6.773438 C 23.03125 6.941406 22.84375 7.066406 22.628906 7.15625 C 22.414062 7.246094 22.1875 7.289062 21.957031 7.289062 C 21.722656 7.289062 21.5 7.246094 21.285156 7.15625 C 21.066406 7.066406 20.878906 6.941406 20.714844 6.773438 C 20.546875 6.609375 20.421875 6.421875 20.332031 6.207031 C 20.242188 5.992188 20.199219 5.765625 20.199219 5.535156 Z M 6.289062 4.644531 L 6.289062 3.761719 C 6.289062 3.527344 6.332031 3.304688 6.421875 3.089844 C 6.511719 2.875 6.636719 2.683594 6.800781 2.519531 C 6.96875 2.355469 7.15625 2.226562 7.371094 2.136719 C 7.585938 2.050781 7.8125 2.003906 8.042969 2.003906 C 8.277344 2.003906 8.5 2.050781 8.71875 2.136719 C 8.933594 2.226562 9.121094 2.355469 9.285156 2.519531 C 9.453125 2.683594 9.578125 2.875 9.667969 3.089844 C 9.757812 3.304688 9.800781 3.527344 9.800781 3.761719 L 9.800781 5.535156 C 9.800781 5.765625 9.757812 5.992188 9.667969 6.207031 C 9.578125 6.421875 9.453125 6.609375 9.285156 6.773438 C 9.121094 6.941406 8.933594 7.066406 8.714844 7.15625 C 8.5 7.246094 8.277344 7.289062 8.042969 7.289062 C 7.8125 7.289062 7.585938 7.246094 7.371094 7.15625 C 7.15625 7.066406 6.96875 6.941406 6.804688 6.773438 C 6.636719 6.609375 6.511719 6.421875 6.421875 6.207031 C 6.332031 5.992188 6.289062 5.765625 6.289062 5.535156 Z M 28.96875 26.324219 C 28.972656 26.558594 28.925781 26.78125 28.835938 26.996094 C 28.75 27.214844 28.621094 27.402344 28.457031 27.570312 C 28.292969 27.734375 28.101562 27.859375 27.886719 27.949219 C 27.671875 28.039062 27.449219 28.085938 27.214844 28.085938 L 2.785156 28.085938 C 2.550781 28.085938 2.328125 28.039062 2.113281 27.949219 C 1.898438 27.859375 1.707031 27.734375 1.542969 27.570312 C 1.378906 27.402344 1.25 27.214844 1.164062 26.996094 C 1.074219 26.78125 1.027344 26.558594 1.03125 26.324219 L 1.03125 11.566406 L 28.96875 11.566406 Z M 28.96875 26.324219 " fill-opacity="1" fill-rule="nonzero"/></g><path fill="#ffffff" d="M 8.539062 20.839844 L 14.679688 26.011719 C 14.773438 26.089844 14.878906 26.128906 15 26.128906 C 15.121094 26.128906 15.226562 26.089844 15.320312 26.011719 L 21.460938 20.839844 C 21.875 20.488281 22.214844 20.074219 22.484375 19.601562 C 22.75 19.125 22.925781 18.621094 23.007812 18.082031 C 23.09375 17.546875 23.082031 17.011719 22.972656 16.476562 C 22.863281 15.941406 22.667969 15.445312 22.378906 14.984375 C 22.214844 14.722656 22.027344 14.480469 21.8125 14.253906 C 21.597656 14.03125 21.363281 13.832031 21.105469 13.65625 C 20.851562 13.484375 20.582031 13.335938 20.296875 13.214844 C 20.011719 13.097656 19.714844 13.007812 19.414062 12.945312 C 19.109375 12.886719 18.804688 12.859375 18.492188 12.863281 C 18.183594 12.867188 17.878906 12.902344 17.574219 12.96875 C 17.273438 13.035156 16.980469 13.128906 16.699219 13.257812 C 16.417969 13.382812 16.148438 13.535156 15.898438 13.714844 L 15 14.371094 L 14.101562 13.714844 C 13.851562 13.535156 13.582031 13.382812 13.300781 13.257812 C 13.019531 13.128906 12.726562 13.035156 12.425781 12.96875 C 12.121094 12.902344 11.816406 12.867188 11.507812 12.863281 C 11.195312 12.859375 10.890625 12.886719 10.585938 12.945312 C 10.285156 13.007812 9.988281 13.097656 9.703125 13.214844 C 9.417969 13.335938 9.148438 13.484375 8.894531 13.65625 C 8.636719 13.832031 8.402344 14.03125 8.1875 14.253906 C 7.972656 14.480469 7.785156 14.722656 7.621094 14.984375 C 7.332031 15.445312 7.136719 15.941406 7.027344 16.476562 C 6.917969 17.011719 6.90625 17.546875 6.992188 18.082031 C 7.074219 18.621094 7.25 19.125 7.515625 19.601562 C 7.785156 20.074219 8.125 20.488281 8.539062 20.839844 Z M 8.539062 20.839844 " fill-opacity="1" fill-rule="nonzero"/><path fill="#ffffff" d="M 3.644531 22.667969 C 3.78125 22.667969 3.898438 22.617188 3.996094 22.523438 C 4.09375 22.425781 4.144531 22.304688 4.144531 22.167969 L 4.144531 13.359375 C 4.144531 13.222656 4.09375 13.105469 3.996094 13.007812 C 3.898438 12.910156 3.78125 12.859375 3.644531 12.859375 C 3.507812 12.859375 3.390625 12.910156 3.292969 13.007812 C 3.195312 13.105469 3.144531 13.222656 3.144531 13.359375 L 3.144531 22.167969 C 3.144531 22.304688 3.195312 22.425781 3.292969 22.523438 C 3.390625 22.617188 3.507812 22.667969 3.644531 22.667969 Z M 3.644531 22.667969 " fill-opacity="1" fill-rule="nonzero"/><path fill="#ffffff" d="M 3.644531 26.492188 C 3.78125 26.492188 3.898438 26.441406 3.996094 26.34375 C 4.09375 26.25 4.144531 26.128906 4.144531 25.992188 L 4.144531 24.457031 C 4.144531 24.320312 4.09375 24.199219 3.996094 24.105469 C 3.898438 24.007812 3.78125 23.957031 3.644531 23.957031 C 3.507812 23.957031 3.390625 24.007812 3.292969 24.105469 C 3.195312 24.199219 3.144531 24.320312 3.144531 24.457031 L 3.144531 25.992188 C 3.144531 26.128906 3.195312 26.25 3.292969 26.34375 C 3.390625 26.441406 3.507812 26.492188 3.644531 26.492188 Z M 3.644531 26.492188 " fill-opacity="1" fill-rule="nonzero"/></svg>