<svg xmlns="http://www.w3.org/2000/svg" xmlns:xlink="http://www.w3.org/1999/xlink" width="40" zoomAndPan="magnify" viewBox="0 0 30 37.92" height="40" preserveAspectRatio="xMidYMid meet" version="1.0"><defs><clipPath id="d1cdf980ba"><path d="M 0.03125 4.675781 L 29.96875 4.675781 L 29.96875 25 L 0.03125 25 Z M 0.03125 4.675781 " clip-rule="nonzero"/></clipPath></defs><g clip-path="url(#d1cdf980ba)"><path fill="#ffffff" d="M 1.902344 18.125 C 1.902344 16.828125 1.890625 15.539062 1.90625 14.246094 C 1.914062 13.875 1.8125 13.691406 1.417969 13.628906 C 0.601562 13.503906 0.0585938 12.84375 0.046875 12.039062 C 0.0351562 11.207031 0.523438 10.558594 1.359375 10.40625 C 1.765625 10.332031 1.90625 10.183594 1.925781 9.757812 C 1.964844 8.835938 2.421875 8.339844 3.320312 8.144531 C 3.542969 8.097656 3.667969 8.023438 3.660156 7.78125 C 3.652344 7.527344 3.789062 7.414062 4.035156 7.398438 C 4.285156 7.378906 4.53125 7.34375 4.78125 7.324219 C 4.945312 7.3125 5.070312 7.292969 5.15625 7.101562 C 5.28125 6.816406 5.996094 6.757812 6.121094 7.03125 C 6.25 7.320312 6.457031 7.3125 6.691406 7.328125 C 6.863281 7.335938 7.039062 7.359375 7.214844 7.378906 C 7.433594 7.40625 7.574219 7.511719 7.558594 7.75 C 7.542969 8.042969 7.683594 8.132812 7.960938 8.132812 C 9 8.125 10.042969 8.121094 11.089844 8.128906 C 11.34375 8.132812 11.492188 8.019531 11.617188 7.8125 C 12.023438 7.148438 12.441406 6.492188 12.855469 5.832031 C 12.902344 5.757812 12.933594 5.640625 13 5.617188 C 13.410156 5.46875 13.789062 5.320312 13.816406 4.777344 C 13.820312 4.675781 14.078125 4.703125 14.222656 4.703125 C 15.21875 4.699219 16.21875 4.707031 17.21875 4.695312 C 17.566406 4.691406 17.796875 4.769531 17.773438 5.175781 C 17.761719 5.375 17.867188 5.484375 18.070312 5.460938 C 18.339844 5.425781 18.464844 5.589844 18.585938 5.789062 C 18.988281 6.4375 19.417969 7.070312 19.796875 7.734375 C 20 8.089844 20.273438 8.164062 20.636719 8.128906 C 20.835938 8.113281 20.921875 8.023438 20.941406 7.828125 C 20.980469 7.46875 20.800781 7.042969 21.050781 6.761719 C 21.289062 6.496094 21.722656 6.636719 22.058594 6.546875 C 22.128906 6.527344 22.234375 6.539062 22.246094 6.457031 C 22.3125 6.015625 22.652344 6.117188 22.925781 6.109375 C 23.308594 6.101562 23.691406 6.105469 24.074219 6.109375 C 24.328125 6.113281 24.574219 6.066406 24.714844 6.414062 C 24.816406 6.664062 25.167969 6.578125 25.398438 6.59375 C 25.859375 6.617188 26.03125 6.824219 25.976562 7.265625 C 25.96875 7.351562 25.984375 7.441406 25.976562 7.527344 C 25.917969 7.96875 26.066406 8.144531 26.550781 8.144531 C 27.4375 8.140625 28.097656 8.832031 28.089844 9.730469 C 28.085938 10.167969 28.207031 10.339844 28.65625 10.410156 C 29.476562 10.542969 29.957031 11.195312 29.957031 12.046875 C 29.953125 12.871094 29.46875 13.496094 28.644531 13.625 C 28.183594 13.691406 28.089844 13.894531 28.09375 14.316406 C 28.109375 16.859375 28.101562 19.398438 28.101562 21.941406 C 28.101562 23.25 27.398438 23.953125 26.085938 23.953125 C 24.03125 23.957031 21.976562 23.957031 19.917969 23.953125 C 19.636719 23.953125 19.375 23.992188 19.113281 24.125 C 16.9375 25.226562 14.746094 25.257812 12.546875 24.195312 C 12.207031 24.03125 11.875 23.949219 11.496094 23.949219 C 8.984375 23.960938 6.472656 23.957031 3.960938 23.953125 C 2.632812 23.949219 1.917969 23.238281 1.90625 21.914062 C 1.898438 21.28125 1.902344 20.652344 1.902344 20.019531 C 1.902344 19.386719 1.902344 18.753906 1.902344 18.125 Z M 9.214844 17.453125 C 9.21875 21.121094 12.148438 24.085938 15.761719 24.078125 C 19.363281 24.074219 22.332031 21.082031 22.332031 17.457031 C 22.332031 13.773438 19.394531 10.796875 15.765625 10.796875 C 12.121094 10.800781 9.210938 13.753906 9.214844 17.453125 Z M 7.25 8.964844 C 6.078125 8.964844 4.902344 8.957031 3.726562 8.964844 C 3.054688 8.972656 2.789062 9.246094 2.78125 9.898438 C 2.777344 10.132812 2.796875 10.371094 2.777344 10.605469 C 2.746094 10.976562 2.871094 11.128906 3.269531 11.121094 C 4.445312 11.097656 5.621094 11.117188 6.796875 11.109375 C 7.039062 11.109375 7.234375 11.148438 7.417969 11.347656 C 8.027344 12.007812 8.867188 12.003906 9.519531 11.371094 C 9.625 11.273438 9.703125 11.121094 9.867188 11.125 C 10.132812 11.125 10.246094 10.945312 10.367188 10.753906 C 11.289062 9.289062 12.222656 7.828125 13.132812 6.351562 C 13.320312 6.046875 13.542969 5.921875 13.886719 5.945312 C 15.117188 6.042969 16.351562 6.003906 17.585938 5.992188 C 17.980469 5.988281 18.195312 6.136719 18.394531 6.457031 C 19.269531 7.867188 20.175781 9.257812 21.050781 10.667969 C 21.25 10.992188 21.46875 11.128906 21.859375 11.121094 C 23.300781 11.097656 24.738281 11.113281 26.179688 11.113281 C 27.277344 11.113281 27.277344 11.113281 27.269531 10.023438 C 27.265625 9.199219 27.027344 8.964844 26.183594 8.960938 C 24.363281 8.960938 22.542969 8.957031 20.71875 8.964844 C 20.402344 8.96875 20.210938 8.859375 20.046875 8.585938 C 19.527344 7.734375 18.976562 6.902344 18.457031 6.046875 C 18.300781 5.789062 18.121094 5.691406 17.820312 5.695312 C 16.4375 5.707031 15.058594 5.707031 13.675781 5.691406 C 13.359375 5.6875 13.164062 5.789062 13 6.0625 C 12.492188 6.90625 11.953125 7.726562 11.445312 8.570312 C 11.273438 8.851562 11.074219 8.976562 10.734375 8.96875 C 9.570312 8.949219 8.410156 8.960938 7.25 8.964844 Z M 10.816406 23.101562 C 10.539062 22.671875 10.238281 22.507812 9.789062 22.511719 C 7.628906 22.535156 5.472656 22.519531 3.316406 22.527344 C 3.179688 22.527344 3.023438 22.460938 2.910156 22.601562 C 3.207031 22.992188 3.40625 23.097656 3.921875 23.101562 C 4.90625 23.105469 5.886719 23.101562 6.871094 23.101562 C 8.160156 23.101562 9.453125 23.101562 10.816406 23.101562 Z M 27.113281 22.566406 C 27.007812 22.546875 26.953125 22.527344 26.902344 22.523438 C 25.082031 22.523438 23.265625 22.527344 21.449219 22.523438 C 21.070312 22.523438 20.902344 22.789062 20.699219 23.035156 C 20.75 23.066406 20.773438 23.09375 20.796875 23.09375 C 22.628906 23.09375 24.460938 23.101562 26.292969 23.089844 C 26.632812 23.089844 26.90625 22.925781 27.113281 22.566406 Z M 28.082031 12.023438 C 28.214844 12.222656 27.871094 12.632812 28.363281 12.65625 C 28.714844 12.675781 29.015625 12.355469 29.023438 12.027344 C 29.03125 11.671875 28.707031 11.320312 28.359375 11.359375 C 27.890625 11.410156 28.199219 11.800781 28.082031 12.023438 Z M 1.894531 12.074219 C 1.894531 11.882812 1.898438 11.734375 1.890625 11.589844 C 1.886719 11.460938 1.832031 11.371094 1.683594 11.355469 C 1.382812 11.320312 1.019531 11.640625 0.988281 11.96875 C 0.957031 12.3125 1.234375 12.628906 1.597656 12.636719 C 2.121094 12.652344 1.796875 12.234375 1.894531 12.074219 Z M 12.78125 10.492188 C 11.671875 10.242188 10.382812 11.253906 10.378906 12.25 C 10.792969 11.96875 10.972656 11.488281 11.324219 11.15625 C 11.703125 10.800781 12.179688 10.667969 12.78125 10.492188 Z M 21.019531 12.105469 C 20.863281 10.984375 19.714844 10.230469 18.570312 10.472656 C 19.699219 10.546875 20.382812 11.289062 21.019531 12.105469 Z M 10.605469 17.398438 C 10.605469 14.546875 12.945312 12.183594 15.769531 12.183594 C 18.578125 12.1875 20.953125 14.605469 20.945312 17.457031 C 20.933594 20.28125 18.527344 22.707031 15.761719 22.683594 C 12.9375 22.664062 10.605469 20.273438 10.605469 17.398438 Z M 19.359375 17.433594 C 19.363281 15.367188 17.804688 13.785156 15.769531 13.785156 C 13.726562 13.78125 12.148438 15.359375 12.148438 17.410156 C 12.148438 19.449219 13.746094 21.078125 15.746094 21.078125 C 17.761719 21.078125 19.359375 19.46875 19.359375 17.433594 Z M 8.476562 11.570312 C 9.097656 11.566406 9.660156 10.996094 9.65625 10.382812 C 9.648438 9.769531 9.117188 9.257812 8.480469 9.257812 C 7.851562 9.257812 7.339844 9.769531 7.34375 10.40625 C 7.34375 11.035156 7.867188 11.578125 8.476562 11.570312 Z M 15.75 14.023438 C 17.613281 14.023438 19.121094 15.539062 19.121094 17.421875 C 19.117188 19.289062 17.59375 20.839844 15.75 20.839844 C 13.964844 20.84375 12.390625 19.253906 12.382812 17.441406 C 12.375 15.570312 13.894531 14.023438 15.75 14.023438 Z M 15.746094 18.71875 C 16.535156 18.71875 17.125 18.136719 17.117188 17.367188 C 17.113281 16.65625 16.519531 16.082031 15.78125 16.074219 C 14.996094 16.066406 14.433594 16.605469 14.429688 17.375 C 14.425781 18.15625 14.976562 18.71875 15.746094 18.71875 Z M 15.746094 18.71875 " fill-opacity="1" fill-rule="nonzero"/></g></svg>