<svg xmlns="http://www.w3.org/2000/svg" xmlns:xlink="http://www.w3.org/1999/xlink" width="40" zoomAndPan="magnify" viewBox="0 0 30 37.92" height="40" preserveAspectRatio="xMidYMid meet" version="1.0"><defs><clipPath id="fad899d92e"><path d="M 1 20 L 29.96875 20 L 29.96875 29.9375 L 1 29.9375 Z M 1 20 " clip-rule="nonzero"/></clipPath><clipPath id="1676bd6555"><path d="M 0.03125 12 L 11 12 L 11 29 L 0.03125 29 Z M 0.03125 12 " clip-rule="nonzero"/></clipPath><clipPath id="5e475552d9"><path d="M 19 12 L 29.96875 12 L 29.96875 29 L 19 29 Z M 19 12 " clip-rule="nonzero"/></clipPath><clipPath id="d3b65e68dc"><path d="M 0.03125 10 L 3 10 L 3 14 L 0.03125 14 Z M 0.03125 10 " clip-rule="nonzero"/></clipPath><clipPath id="347d61953e"><path d="M 27 10 L 29.96875 10 L 29.96875 14 L 27 14 Z M 27 10 " clip-rule="nonzero"/></clipPath><clipPath id="89b2d5a38f"><path d="M 2 0.0546875 L 28 0.0546875 L 28 15 L 2 15 Z M 2 0.0546875 " clip-rule="nonzero"/></clipPath></defs><g clip-path="url(#fad899d92e)"><path fill="#ffffff" d="M 26.703125 29.933594 L 3.238281 29.933594 C 2.503906 29.933594 1.832031 29.6875 1.292969 29.277344 L 11.390625 20.804688 L 14.808594 23.367188 C 14.855469 23.402344 14.914062 23.421875 14.972656 23.421875 C 15.027344 23.421875 15.085938 23.402344 15.132812 23.367188 L 18.660156 20.722656 L 29.023438 28.945312 C 28.4375 29.554688 27.617188 29.933594 26.703125 29.933594 Z M 26.703125 29.933594 " fill-opacity="1" fill-rule="nonzero"/></g><g clip-path="url(#1676bd6555)"><path fill="#ffffff" d="M 0.886719 28.90625 C 0.359375 28.339844 0.03125 27.582031 0.03125 26.75 L 0.03125 12.289062 L 10.945312 20.46875 Z M 0.886719 28.90625 " fill-opacity="1" fill-rule="nonzero"/></g><g clip-path="url(#5e475552d9)"><path fill="#ffffff" d="M 19.109375 20.386719 L 29.910156 12.289062 L 29.910156 26.75 C 29.910156 27.40625 29.710938 28.015625 29.367188 28.523438 Z M 19.109375 20.386719 " fill-opacity="1" fill-rule="nonzero"/></g><path fill="#ffffff" d="M 8.59375 18.027344 L 6.265625 16.28125 L 23.675781 16.28125 L 21.351562 18.027344 Z M 8.59375 18.027344 " fill-opacity="1" fill-rule="nonzero"/><path fill="#ffffff" d="M 9.316406 18.570312 L 20.625 18.570312 L 14.972656 22.8125 Z M 9.316406 18.570312 " fill-opacity="1" fill-rule="nonzero"/><g clip-path="url(#d3b65e68dc)"><path fill="#ffffff" d="M 2.152344 13.199219 L 0.210938 11.742188 L 0.171875 11.742188 L 2.152344 10.003906 Z M 2.152344 13.199219 " fill-opacity="1" fill-rule="nonzero"/></g><g clip-path="url(#347d61953e)"><path fill="#ffffff" d="M 27.789062 13.199219 L 27.789062 10.003906 L 29.769531 11.742188 L 29.730469 11.742188 Z M 27.789062 13.199219 " fill-opacity="1" fill-rule="nonzero"/></g><g clip-path="url(#89b2d5a38f)"><path fill="#ffffff" d="M 2.875 13.742188 L 2.695312 13.742188 L 2.695312 0.851562 C 2.695312 0.414062 3.058594 0.0546875 3.507812 0.0546875 L 26.433594 0.0546875 C 26.882812 0.0546875 27.246094 0.414062 27.246094 0.851562 L 27.246094 13.742188 L 27.066406 13.742188 L 25.5625 14.867188 L 25.5625 2.066406 C 25.5625 1.914062 25.441406 1.792969 25.292969 1.792969 L 4.648438 1.792969 C 4.5 1.792969 4.378906 1.914062 4.378906 2.066406 L 4.378906 14.867188 Z M 2.875 13.742188 " fill-opacity="1" fill-rule="nonzero"/></g><path fill="#ffffff" d="M 24.402344 15.738281 L 5.539062 15.738281 L 5.101562 15.410156 L 4.921875 15.410156 L 4.921875 2.335938 L 25.019531 2.335938 L 25.019531 15.410156 L 24.839844 15.410156 Z M 11.230469 8.3125 C 10.6875 7.578125 10.007812 7.265625 9.382812 7.265625 C 7.394531 7.261719 5.949219 10.414062 11.230469 13.21875 C 16.507812 10.414062 15.066406 7.265625 13.078125 7.265625 C 12.453125 7.265625 11.769531 7.578125 11.230469 8.3125 Z M 19.207031 5.078125 C 18.34375 5.078125 17.40625 5.507812 16.664062 6.519531 C 15.917969 5.507812 14.980469 5.078125 14.117188 5.078125 C 12.925781 5.078125 11.875 5.898438 11.671875 7.148438 C 12.101562 6.871094 12.582031 6.71875 13.078125 6.71875 C 14.15625 6.71875 15.09375 7.445312 15.351562 8.484375 C 15.464844 8.941406 15.59375 10.210938 14.214844 11.699219 C 14.878906 12.226562 15.683594 12.753906 16.664062 13.273438 C 23.929688 9.414062 21.941406 5.078125 19.207031 5.078125 Z M 19.207031 5.078125 " fill-opacity="1" fill-rule="nonzero"/></svg>