<svg xmlns="http://www.w3.org/2000/svg" xmlns:xlink="http://www.w3.org/1999/xlink" width="40" zoomAndPan="magnify" viewBox="0 0 30 37.92" height="40" preserveAspectRatio="xMidYMid meet" version="1.0"><defs><clipPath id="547e077d42"><path d="M 0.03125 8 L 20 8 L 20 26.699219 L 0.03125 26.699219 Z M 0.03125 8 " clip-rule="nonzero"/></clipPath><clipPath id="e2f9b98fce"><path d="M 10 3.5 L 29.96875 3.5 L 29.96875 22 L 10 22 Z M 10 3.5 " clip-rule="nonzero"/></clipPath></defs><g clip-path="url(#547e077d42)"><path fill="#ffffff" d="M 2.851562 26.425781 C 2.773438 26.425781 2.699219 26.40625 2.628906 26.371094 C 2.46875 26.289062 2.367188 26.125 2.367188 25.941406 L 2.367188 23.15625 L 1.828125 23.15625 C 0.835938 23.15625 0.03125 22.347656 0.03125 21.359375 L 0.03125 9.96875 C 0.03125 8.976562 0.835938 8.171875 1.828125 8.171875 L 10.792969 8.171875 C 11.0625 8.171875 11.277344 8.386719 11.277344 8.652344 C 11.277344 8.921875 11.0625 9.136719 10.792969 9.136719 L 1.828125 9.136719 C 1.371094 9.136719 0.996094 9.507812 0.996094 9.96875 L 0.996094 21.359375 C 0.996094 21.816406 1.371094 22.1875 1.828125 22.1875 L 2.851562 22.1875 C 3.117188 22.1875 3.332031 22.40625 3.332031 22.671875 L 3.332031 25.015625 L 7.246094 22.277344 C 7.328125 22.21875 7.425781 22.1875 7.523438 22.1875 L 17.890625 22.1875 C 18.351562 22.1875 18.722656 21.816406 18.722656 21.359375 L 18.722656 18 C 18.722656 17.734375 18.9375 17.515625 19.207031 17.515625 C 19.472656 17.515625 19.6875 17.734375 19.6875 18 L 19.6875 21.359375 C 19.6875 22.347656 18.882812 23.15625 17.890625 23.15625 L 7.675781 23.15625 L 3.128906 26.339844 C 3.046875 26.394531 2.949219 26.425781 2.851562 26.425781 Z M 2.851562 26.425781 " fill-opacity="1" fill-rule="nonzero"/></g><g clip-path="url(#e2f9b98fce)"><path fill="#ffffff" d="M 27.148438 21.753906 C 27.050781 21.753906 26.953125 21.722656 26.871094 21.664062 L 22.324219 18.480469 L 12.109375 18.480469 C 11.117188 18.480469 10.3125 17.675781 10.3125 16.683594 L 10.3125 5.296875 C 10.3125 4.304688 11.117188 3.5 12.109375 3.5 L 28.171875 3.5 C 29.164062 3.5 29.96875 4.304688 29.96875 5.296875 L 29.96875 16.683594 C 29.96875 17.675781 29.164062 18.480469 28.171875 18.480469 L 27.632812 18.480469 L 27.632812 21.269531 C 27.632812 21.449219 27.53125 21.617188 27.371094 21.699219 C 27.300781 21.734375 27.226562 21.753906 27.148438 21.753906 Z M 12.109375 4.464844 C 11.648438 4.464844 11.277344 4.835938 11.277344 5.296875 L 11.277344 16.683594 C 11.277344 17.144531 11.648438 17.515625 12.109375 17.515625 L 22.476562 17.515625 C 22.574219 17.515625 22.671875 17.546875 22.753906 17.605469 L 26.667969 20.34375 L 26.667969 18 C 26.667969 17.734375 26.882812 17.515625 27.148438 17.515625 L 28.171875 17.515625 C 28.628906 17.515625 29.003906 17.144531 29.003906 16.683594 L 29.003906 5.296875 C 29.003906 4.835938 28.628906 4.464844 28.171875 4.464844 Z M 12.109375 4.464844 " fill-opacity="1" fill-rule="nonzero"/></g><path fill="#ffffff" d="M 20.140625 16.554688 C 17.039062 16.554688 14.515625 14.03125 14.515625 10.933594 C 14.515625 7.832031 17.039062 5.308594 20.140625 5.308594 C 23.242188 5.308594 25.761719 7.832031 25.761719 10.933594 C 25.761719 14.03125 23.242188 16.554688 20.140625 16.554688 Z M 20.140625 6.273438 C 17.570312 6.273438 15.484375 8.363281 15.484375 10.933594 C 15.484375 13.5 17.570312 15.589844 20.140625 15.589844 C 22.707031 15.589844 24.796875 13.5 24.796875 10.933594 C 24.796875 8.363281 22.707031 6.273438 20.140625 6.273438 Z M 20.140625 6.273438 " fill-opacity="1" fill-rule="nonzero"/><path fill="#ffffff" d="M 20.140625 14.351562 C 20.011719 14.351562 19.890625 14.300781 19.796875 14.210938 L 17.265625 11.679688 C 16.539062 10.953125 16.539062 9.773438 17.265625 9.046875 C 17.992188 8.320312 19.171875 8.320312 19.898438 9.046875 L 20.140625 9.289062 L 20.382812 9.046875 C 20.734375 8.695312 21.203125 8.5 21.699219 8.5 C 22.195312 8.5 22.664062 8.695312 23.015625 9.046875 C 23.367188 9.398438 23.558594 9.867188 23.558594 10.363281 C 23.558594 10.859375 23.367188 11.328125 23.015625 11.679688 L 20.480469 14.210938 C 20.390625 14.300781 20.269531 14.351562 20.140625 14.351562 Z M 18.582031 9.46875 C 18.351562 9.46875 18.121094 9.554688 17.949219 9.730469 C 17.597656 10.078125 17.597656 10.648438 17.949219 10.996094 L 20.140625 13.1875 L 22.332031 10.996094 C 22.5 10.828125 22.59375 10.601562 22.59375 10.363281 C 22.59375 10.125 22.5 9.898438 22.332031 9.730469 C 22.164062 9.5625 21.9375 9.46875 21.699219 9.46875 C 21.460938 9.46875 21.234375 9.5625 21.066406 9.730469 L 20.480469 10.3125 C 20.390625 10.40625 20.269531 10.457031 20.140625 10.457031 C 20.011719 10.457031 19.890625 10.40625 19.796875 10.3125 L 19.214844 9.730469 C 19.039062 9.554688 18.808594 9.46875 18.582031 9.46875 Z M 18.582031 9.46875 " fill-opacity="1" fill-rule="nonzero"/><path fill="#ffffff" d="M 10.792969 13.34375 L 2.851562 13.34375 C 2.585938 13.34375 2.367188 13.125 2.367188 12.859375 C 2.367188 12.59375 2.585938 12.375 2.851562 12.375 L 10.792969 12.375 C 11.0625 12.375 11.277344 12.59375 11.277344 12.859375 C 11.277344 13.125 11.0625 13.34375 10.792969 13.34375 Z M 10.792969 13.34375 " fill-opacity="1" fill-rule="nonzero"/><path fill="#ffffff" d="M 10.792969 15.679688 L 2.851562 15.679688 C 2.585938 15.679688 2.367188 15.460938 2.367188 15.195312 C 2.367188 14.929688 2.585938 14.710938 2.851562 14.710938 L 10.792969 14.710938 C 11.0625 14.710938 11.277344 14.929688 11.277344 15.195312 C 11.277344 15.460938 11.0625 15.679688 10.792969 15.679688 Z M 10.792969 15.679688 " fill-opacity="1" fill-rule="nonzero"/><path fill="#ffffff" d="M 13.132812 18.480469 L 2.851562 18.480469 C 2.585938 18.480469 2.367188 18.265625 2.367188 18 C 2.367188 17.734375 2.585938 17.515625 2.851562 17.515625 L 13.132812 17.515625 C 13.398438 17.515625 13.613281 17.734375 13.613281 18 C 13.613281 18.265625 13.398438 18.480469 13.132812 18.480469 Z M 13.132812 18.480469 " fill-opacity="1" fill-rule="nonzero"/></svg>